<svg width="258" height="87" viewBox="0 0 258 87" fill="none" xmlns="http://www.w3.org/2000/svg">
<rect x="0.5" y="0.5" width="257" height="86" rx="43" fill="white"/>
<rect x="0.5" y="0.5" width="257" height="86" rx="43" stroke="white"/>
<path d="M40.51 20.08L59.76 66.07C58.64 66 57.66 66.07 57.24 66.07C56.82 66.07 55.77 66 54.51 66.07L49.47 54.31L49.4 54.17C48.98 53.19 48.56 52.07 48.07 50.95L47.44 49.55L47.79 50.32C47.72 50.11 47.58 49.83 47.44 49.55L46.6 47.66L46.53 47.52L45.69 45.42H29.45L21.26 66C20.98 66 20.7 66 20.35 66L24.76 54.94V54.87C25.25 53.89 25.6 52.91 25.95 52L33.58 32.89L36.59 25.47L38.69 20.08C38.76 19.94 38.83 19.94 39.18 19.94H39.81C40.23 19.94 40.44 19.94 40.51 20.08ZM29.66 44.86H45.41L37.29 25.75L35.75 29.46L29.66 44.86ZM69.2953 66H64.3253V20.08H69.2953V66ZM122.908 57.18L128.298 65.37C124.868 64.95 121.928 63.06 119.198 59.14L118.848 58.58L118.778 58.65L118.358 59.14C114.718 63.55 110.868 65.72 106.808 65.72H106.668C105.268 65.72 103.868 65.44 102.468 64.88C101.068 64.25 99.8077 63.41 98.6877 62.36C97.5677 61.24 96.7277 59.91 96.0277 58.44C95.3277 56.9 95.0477 55.22 95.1177 53.47C95.1177 50.67 95.7477 48.36 97.1477 46.47C98.5477 44.51 101.348 42.06 105.478 39.05L105.968 38.7L105.618 38.21C103.238 34.57 101.978 31.21 101.978 28.27C101.978 26.1 102.818 24.07 104.428 22.25C106.038 20.5 107.998 19.59 110.448 19.59C112.688 19.59 114.718 20.29 116.468 21.62C118.148 22.95 118.988 24.63 118.988 26.73C118.988 30.02 115.978 33.31 110.028 36.6L109.468 36.88L109.818 37.44C111.778 40.24 113.598 42.97 115.418 45.7C115.628 46.05 115.838 46.33 116.048 46.68C117.658 49.06 119.198 51.37 120.668 53.68L121.088 54.31L121.228 54.52C122.768 51.65 123.888 47.87 123.888 47.87C124.378 46.54 124.308 45.21 123.678 43.88C122.628 41.43 121.228 39.4 120.108 37.79L124.448 35.9C124.588 36.11 124.658 36.32 124.728 36.53C126.058 39.61 125.848 43.74 124.378 47.87C123.328 51.23 122.278 53.47 121.438 54.94L121.648 55.22C122.068 55.92 122.488 56.55 122.908 57.11V57.18ZM104.918 26.45C104.918 28.9 106.248 32.05 108.908 36.11L109.258 36.53L109.678 36.32C114.088 33.45 115.208 30.37 115.208 27.01C115.208 25.96 115.068 25.05 114.788 24.21C114.508 23.37 114.158 22.6 113.598 22.04C113.108 21.41 112.478 20.92 111.778 20.57C111.078 20.22 110.238 20.08 109.398 20.08C107.718 20.08 107.298 20.36 106.248 21.55C105.268 22.74 104.918 24.7 104.918 26.45ZM118.498 58.16L118.288 57.74C115.978 54.03 113.878 50.6 111.988 47.66C110.028 44.65 108.208 41.99 106.598 39.61L106.318 39.19L105.898 39.47C103.588 41.01 102.678 41.99 101.418 44.02C100.088 46.05 99.4577 48.15 99.4577 50.04C99.4577 53.05 100.578 55.92 102.818 58.58C105.058 61.24 107.578 62.57 110.448 62.57C113.528 62.57 115.558 61.8 118.218 58.44L118.498 58.16ZM194.968 20.08H199.308V65.86C198.118 65.86 197.068 65.79 196.648 65.79C196.298 65.79 195.248 65.86 194.058 65.86V23.44L193.988 23.51L193.358 24.42C193.148 24.7 192.938 25.05 192.588 25.47C192.308 25.89 192.028 26.45 191.538 27.15L175.928 51.58C175.718 51.93 175.578 52 175.368 52H174.738C174.528 52 174.458 51.93 174.248 51.58L156.048 24.98L155.978 37.37V38.28V48.85C155.908 49.9 155.978 50.81 155.978 51.72V66H155.068V23.58C155.068 23.58 153.458 20.92 151.288 20.92V20.08H158.848C159.268 20.99 160.528 22.81 161.438 24.14L177.468 47.59L189.368 29.04L193.848 21.9C193.918 21.69 194.058 21.48 194.198 21.27L194.968 20.08ZM224.967 65.02C227.977 64.6 233.577 63.13 236.797 58.09V66H207.607V20.08H212.577V65.02C215.937 65.09 221.257 65.23 222.797 65.23C222.797 65.23 223.007 65.23 223.357 65.23C223.777 65.16 224.197 65.16 224.617 65.09C224.757 65.09 224.827 65.02 224.967 65.02Z" fill="black"/>
</svg>
