<svg width="290" height="96" viewBox="0 0 290 96" fill="none" xmlns="http://www.w3.org/2000/svg">
<rect x="110" width="180" height="96" rx="48" fill="black"/>
<path d="M258.685 36.2513C258.685 35.4228 258.013 34.7513 257.185 34.7513L243.685 34.7513C242.856 34.7513 242.185 35.4228 242.185 36.2513C242.185 37.0797 242.856 37.7513 243.685 37.7513L255.685 37.7513L255.685 49.7513C255.685 50.5797 256.356 51.2513 257.185 51.2513C258.013 51.2513 258.685 50.5797 258.685 49.7513L258.685 36.2513ZM233.496 62.0607L258.245 37.3119L256.124 35.1906L231.375 59.9393L233.496 62.0607Z" fill="white"/>
<rect x="0.5" y="0.5" width="207" height="95" rx="47.5" fill="white"/>
<rect x="0.5" y="0.5" width="207" height="95" rx="47.5" stroke="black"/>
<path d="M50.95 74.56C37.65 74.56 26.31 66.02 26.31 49.5C26.31 32.98 37.86 24.44 50.95 24.44C63.2 24.44 71.74 31.02 73.14 41.17L62.15 43.48C61.03 37.6 56.55 33.89 50.88 33.89C43.46 33.89 37.44 39.28 37.44 49.5C37.44 59.72 43.39 65.04 50.88 65.04C56.62 65.04 60.75 61.75 61.87 56.5L73 59.02C70.69 68.75 62.5 74.56 50.95 74.56ZM120.971 74H108.021L97.3813 54.82H91.2213V74H80.1613L80.0213 25H99.5513C109.211 25 115.511 30.88 115.511 39.91C115.511 45.23 112.921 49.92 108.441 52.51L120.971 74ZM91.2213 34.45V45.37H97.6613C102.001 45.37 104.451 43.34 104.451 39.91C104.451 36.48 102.001 34.45 97.6613 34.45H91.2213ZM126.164 74V25H138.344L152.554 58.32L166.764 25H178.944V74H168.654V45.51L156.614 74H148.564L136.454 45.51V74H126.164Z" fill="black"/>
</svg>
