<svg width="680" height="72" viewBox="0 0 680 72" fill="none" xmlns="http://www.w3.org/2000/svg">
<rect x="500" y="-0.00439453" width="180" height="72" rx="36" fill="black"/>
<path d="M641.613 27.3228C641.613 26.4944 640.942 25.8228 640.113 25.8228L626.613 25.8228C625.785 25.8228 625.113 26.4944 625.113 27.3228C625.113 28.1512 625.785 28.8228 626.613 28.8228H638.613V40.8228C638.613 41.6512 639.285 42.3228 640.113 42.3228C640.942 42.3228 641.613 41.6512 641.613 40.8228L641.613 27.3228ZM623.496 46.0611L641.174 28.3835L639.053 26.2622L621.375 43.9398L623.496 46.0611Z" fill="white"/>
<rect x="0.5" y="0.495605" width="592" height="71" rx="35.5" fill="white"/>
<rect x="0.5" y="0.495605" width="592" height="71" rx="35.5" stroke="black"/>
<path d="M27.15 55.9956V20.9956H39.1C48.7 20.9956 57.25 26.4956 57.25 38.4956C57.25 50.4956 48.7 55.9956 39.1 55.9956H27.15ZM34.9 49.1956H38.25C43.9 49.1956 49.3 46.5956 49.3 38.4956C49.3 30.3956 43.9 27.7456 38.25 27.7456H34.9V49.1956ZM62.0133 55.9956V20.9956H86.0633V27.7456H69.9133V34.1456H82.7133V40.9456H69.9133V49.1956H86.6133V55.9956H62.0133ZM103.009 56.3956C96.009 56.3956 90.109 51.6456 89.459 45.2456L96.359 43.1956C96.809 47.0956 99.859 49.6956 103.309 49.6956C106.459 49.6956 108.509 48.1956 108.509 45.9956C108.509 39.3956 90.559 43.2956 90.559 30.4456C90.559 24.6956 96.059 20.5956 102.909 20.5956C109.659 20.5956 115.109 24.1956 116.309 29.5456L109.259 32.4956C108.559 29.3456 106.209 27.2956 102.909 27.2956C100.159 27.2956 98.459 28.4456 98.459 30.3956C98.459 35.9456 116.459 31.4956 116.459 45.7956C116.459 52.1456 111.059 56.3956 103.009 56.3956ZM137.146 56.3956C127.646 56.3956 119.546 50.2956 119.546 38.4956C119.546 26.6956 127.796 20.5956 137.146 20.5956C145.896 20.5956 151.996 25.2956 152.996 32.5456L145.146 34.1956C144.346 29.9956 141.146 27.3456 137.096 27.3456C131.796 27.3456 127.496 31.1956 127.496 38.4956C127.496 45.7956 131.746 49.5956 137.096 49.5956C141.196 49.5956 144.146 47.2456 144.946 43.4956L152.896 45.2956C151.246 52.2456 145.396 56.3956 137.146 56.3956ZM187.162 55.9956H177.912L170.312 42.2956H165.912V55.9956H158.012L157.912 20.9956H171.862C178.762 20.9956 183.262 25.1956 183.262 31.6456C183.262 35.4456 181.412 38.7956 178.212 40.6456L187.162 55.9956ZM165.912 27.7456V35.5456H170.512C173.612 35.5456 175.362 34.0956 175.362 31.6456C175.362 29.1956 173.612 27.7456 170.512 27.7456H165.912ZM190.871 55.9956V20.9956H198.771V55.9956H190.871ZM205.08 55.9956V20.9956H219.13C225.48 20.9956 230.33 24.1456 230.33 29.9956C230.33 33.2956 228.28 35.7956 226.23 36.8956C229.43 38.1456 232.08 40.9956 232.08 45.5456C232.08 52.1956 226.93 55.9956 219.53 55.9956H205.08ZM212.83 34.2456H218.53C221.63 34.2456 223.03 32.8956 223.03 30.7456C223.03 28.5456 221.63 27.1956 218.38 27.1956H212.83V34.2456ZM212.83 49.1956H218.83C222.93 49.1956 224.68 47.7956 224.68 45.0956C224.68 42.3456 222.93 40.8456 218.83 40.8456H212.83V49.1956ZM236.818 55.9956V20.9956H260.868V27.7456H244.718V34.1456H257.518V40.9456H244.718V49.1956H261.418V55.9956H236.818ZM294.227 56.3956C284.727 56.3956 276.627 50.2956 276.627 38.4956C276.627 26.6956 284.877 20.5956 294.227 20.5956C302.977 20.5956 309.077 25.2956 310.077 32.5456L302.227 34.1956C301.427 29.9956 298.227 27.3456 294.177 27.3456C288.877 27.3456 284.577 31.1956 284.577 38.4956C284.577 45.7956 288.827 49.5956 294.177 49.5956C298.277 49.5956 301.227 47.2456 302.027 43.4956L309.977 45.2956C308.327 52.2456 302.477 56.3956 294.227 56.3956ZM336.792 20.9956H344.742V55.9956H336.792V41.3456H322.892V55.9956H314.992V20.9956H322.892V34.5956H336.792V20.9956ZM373.977 55.9956L371.427 48.7956H358.927L356.377 55.9956H348.177L361.427 20.9956H368.877L382.127 55.9956H373.977ZM361.327 42.1956H369.027L365.177 31.3456L361.327 42.1956ZM385.207 55.9956V20.9956H393.107V49.1956H408.807V55.9956H385.207ZM412.502 55.9956V20.9956H420.402V49.1956H436.102V55.9956H412.502ZM439.796 55.9956V20.9956H463.846V27.7456H447.696V34.1456H460.496V40.9456H447.696V49.1956H464.396V55.9956H439.796ZM469.142 55.9956V20.9956H476.992L490.592 43.4956V20.9956H497.942V55.9956H490.092L476.492 33.4956V55.9956H469.142ZM520 56.3956C511.05 56.3956 502.75 50.4456 502.75 38.4956C502.75 26.5456 511.3 20.5956 520.6 20.5956C529.35 20.5956 535.4 25.0956 536.7 32.5456L528.9 34.1456C528.1 30.0456 524.85 27.3456 520.5 27.3456C514.7 27.3456 510.65 31.4456 510.65 38.4956C510.65 45.5456 514.7 49.5956 520.4 49.5956C525.05 49.5956 528.35 46.9956 528.8 43.2456H519.3V36.9456H536.1V55.9956H528.9V52.3456C527.45 54.7956 523.9 56.3956 520 56.3956ZM542.091 55.9956V20.9956H566.141V27.7456H549.991V34.1456H562.791V40.9456H549.991V49.1956H566.691V55.9956H542.091Z" fill="black"/>
</svg>
