<svg version="1.1" id="Layer_1" xmlns="http://www.w3.org/2000/svg" xmlns:xlink="http://www.w3.org/1999/xlink" x="0px" y="0px"
	 width="100%" viewBox="0 0 730 249" enable-background="new 0 0 730 249" xml:space="preserve">
<path fill="#FEFEFE" opacity="1.000000" stroke="none" 
	d="
M66.000000,1.000000 
	C287.606964,1.000000 509.213898,1.000000 730.910400,1.000000 
	C730.910400,83.917831 730.910400,166.835800 730.910400,250.000000 
	C509.641815,250.000000 288.283539,250.000000 66.452179,249.531433 
	C65.986046,166.375244 65.993027,83.687622 66.000000,1.000000 
M131.862595,191.503113 
	C131.862595,186.411057 131.862595,181.319000 131.862595,175.853043 
	C140.083832,175.853043 147.562515,176.060303 155.025848,175.809937 
	C170.605576,175.287247 183.726288,163.309052 184.923950,148.792770 
	C186.235443,132.896973 175.923798,118.115150 160.226242,116.424713 
	C146.775085,114.976189 133.044235,116.124779 119.211739,116.124779 
	C119.211739,149.461411 119.211739,182.976959 119.211739,216.642212 
	C123.499512,216.642212 127.409073,216.642212 131.862473,216.642212 
	C131.862473,208.404984 131.862473,200.453323 131.862595,191.503113 
M499.691406,152.786652 
	C486.767426,143.138779 470.070190,142.483185 458.342957,151.163132 
	C444.899048,161.113647 439.777344,179.670380 445.819305,196.538376 
	C451.303314,211.848709 464.668030,220.051956 482.416595,219.001709 
	C494.524384,218.285248 506.109161,209.887680 508.508575,199.841766 
	C504.941925,198.358337 501.334045,196.857758 497.832031,195.401230 
	C491.006042,206.049591 481.522522,209.507568 471.112885,205.903259 
	C464.015228,203.445724 455.733246,194.292374 457.460510,184.621201 
	C475.222565,184.621201 493.097412,184.621201 511.431610,184.621201 
	C511.666199,172.281265 509.106384,161.670166 499.691406,152.786652 
M209.310532,160.650986 
	C216.806931,155.969452 224.441803,155.746292 231.864105,160.543304 
	C236.952911,163.832184 239.176041,168.744415 238.500153,175.309128 
	C236.673035,174.676086 235.314743,174.100494 233.902359,173.732544 
	C221.350189,170.462463 209.088974,170.256073 198.102173,178.363739 
	C186.313461,187.063171 186.455078,204.933517 198.155991,213.711273 
	C209.507782,222.227097 226.237366,220.777802 235.917297,210.454178 
	C236.628128,209.696075 237.433441,209.026550 238.943207,207.617264 
	C238.943207,211.232849 238.943207,213.816360 238.943207,216.654907 
	C243.117645,216.654907 246.856339,216.654907 250.621826,216.654907 
	C250.621826,199.975098 251.088593,183.539200 250.402588,167.151550 
	C250.109451,160.149246 245.524063,154.412659 239.433228,150.620010 
	C228.431198,143.769257 216.800003,143.141891 205.111374,148.538284 
	C199.333801,151.205688 194.911972,155.610825 192.272552,162.094849 
	C196.502090,163.916336 200.110001,165.470123 203.549332,166.951294 
	C205.455185,164.779175 207.077972,162.929657 209.310532,160.650986 
M385.475433,169.363281 
	C386.264862,167.902466 386.936371,166.361679 387.863586,164.994308 
	C392.464478,158.209457 399.271393,155.771103 407.515839,157.862473 
	C414.248718,159.570404 418.086334,164.318039 418.816376,172.548981 
	C419.212341,177.013153 419.018616,181.532715 419.028809,186.027420 
	C419.051758,196.135742 419.036011,206.244141 419.036011,216.558228 
	C423.646912,216.558228 427.683594,216.558228 431.816589,216.558228 
	C431.816589,200.227997 432.425629,184.238037 431.594604,168.323273 
	C431.072571,158.325775 425.919983,150.141037 415.680695,146.741409 
	C405.014191,143.199951 395.297485,145.249725 386.957275,152.900864 
	C385.935333,153.838348 385.456818,155.368164 384.726471,156.623459 
	C384.180939,156.256226 383.635437,155.888977 383.089905,155.521729 
	C383.089905,152.975586 383.089905,150.429428 383.089905,147.756775 
	C378.686310,147.756775 374.818085,147.756775 370.835876,147.756775 
	C370.835876,170.919113 370.835876,193.664078 370.835876,216.604065 
	C375.197266,216.604065 379.251312,216.604065 383.794373,216.604065 
	C383.794373,205.498581 383.660980,194.711990 383.856873,183.931396 
	C383.940796,179.314941 384.710175,174.710953 385.475433,169.363281 
M340.655823,163.564529 
	C340.279663,160.595474 341.432373,159.342621 344.561554,159.500504 
	C348.800537,159.714432 353.058472,159.553741 357.179749,159.553741 
	C357.179749,154.962906 357.179749,151.258484 357.179749,147.020325 
	C351.481506,147.020325 346.242096,147.020325 340.557556,147.020325 
	C340.557556,139.885559 340.557556,133.290573 340.557556,126.422661 
	C336.029999,126.422661 331.974548,126.422661 327.277039,126.422661 
	C327.277039,133.368790 327.277039,140.092148 327.277039,147.446594 
	C322.927795,147.446594 319.205933,147.446594 315.391724,147.446594 
	C315.391724,151.704376 315.391724,155.310257 315.391724,159.575851 
	C319.323914,159.575851 323.048615,159.575851 327.306061,159.575851 
	C327.306061,162.509018 327.282654,164.800964 327.310059,167.092316 
	C327.443298,178.233841 326.770386,189.461548 327.932861,200.495468 
	C329.502625,215.395279 346.684906,223.186752 360.184174,215.520599 
	C358.781342,212.115082 357.360077,208.664871 355.996399,205.354401 
	C343.850067,207.113190 340.696442,204.361923 340.663300,192.513901 
	C340.637207,183.193909 340.655640,173.873764 340.655823,163.564529 
M128.064819,37.528526 
	C116.836868,47.996704 113.750275,61.537411 119.720734,74.133499 
	C125.960648,87.298065 139.365845,94.151306 154.438919,91.882713 
	C170.359024,89.486641 181.463669,72.688271 176.535599,58.365311 
	C167.297897,58.365311 158.042145,58.365311 148.636444,58.365311 
	C148.636444,61.343929 148.636444,64.023033 148.636444,67.101089 
	C155.346756,67.101089 161.624908,67.101089 167.890869,67.101089 
	C167.883545,74.685646 162.985397,80.658249 155.329727,82.823349 
	C145.132767,85.707153 134.478867,81.614166 129.333618,72.836235 
	C124.227394,64.124863 125.459221,52.678371 132.489777,45.561234 
	C141.746063,36.190960 153.645248,36.892174 163.587540,43.897778 
	C165.621246,42.246330 167.616455,40.626160 169.590485,39.023190 
	C158.865051,27.756617 141.955719,27.184978 128.064819,37.528526 
M524.903198,216.889709 
	C528.547302,216.889709 532.191406,216.889709 536.485535,216.889709 
	C536.485535,214.587296 536.486633,212.634903 536.485291,210.682495 
	C536.478271,200.518311 536.400146,190.353577 536.479919,180.190079 
	C536.595459,165.469223 543.848145,158.608780 558.516296,158.940521 
	C559.789917,158.969330 561.689880,158.026550 562.267273,156.970871 
	C563.836853,154.101013 564.852234,150.928101 566.246887,147.480911 
	C560.297791,145.405655 554.564697,144.692093 549.349304,147.235718 
	C544.480042,149.610565 540.245239,153.286575 535.738281,156.384964 
	C535.738281,154.024017 535.738281,150.941696 535.738281,147.675171 
	C531.397949,147.675171 527.507812,147.675171 523.520996,147.675171 
	C523.373840,148.639160 523.191711,149.277100 523.191345,149.915131 
	C523.179016,171.076660 523.171753,192.238235 523.222351,213.399643 
	C523.224915,214.480087 523.747009,215.559296 524.903198,216.889709 
M311.959198,82.486237 
	C311.959198,72.903305 311.959198,63.320381 311.959198,52.920387 
	C308.190765,53.428783 305.248230,53.825764 302.305664,54.222744 
	C293.818237,50.323135 285.726166,51.324909 279.021484,58.362820 
	C272.370514,65.344360 271.501465,75.700096 276.902832,83.609306 
	C282.837341,92.299210 290.987915,94.122154 302.717102,89.382904 
	C303.746643,95.037086 302.125641,99.058113 297.976746,101.141739 
	C292.858521,103.712128 288.687714,102.249763 282.015350,95.424706 
	C279.857666,96.372459 277.619385,97.355637 275.401031,98.330040 
	C278.482178,106.296936 285.625427,110.811806 293.974304,110.370361 
	C302.507416,109.919159 309.017365,105.248718 310.830566,97.332108 
	C311.854218,92.862740 311.624390,88.106262 311.959198,82.486237 
M279.050903,201.496216 
	C279.052948,194.003159 278.962585,186.508682 279.078003,179.017365 
	C279.264740,166.898834 286.975433,159.140869 299.113342,158.724121 
	C301.204529,158.652313 303.300262,158.713959 305.452087,158.713959 
	C305.452087,154.189728 305.452087,150.285019 305.452087,145.196274 
	C300.112823,146.118958 294.981537,146.183731 290.572784,148.001190 
	C286.255432,149.780975 282.674011,153.345947 278.786163,156.115570 
	C278.661591,153.482498 278.524200,150.578491 278.385742,147.651794 
	C273.972046,147.651794 270.216705,147.651794 266.380310,147.651794 
	C266.380310,170.828995 266.380310,193.688263 266.380310,216.633728 
	C270.690979,216.633728 274.607086,216.633728 279.050964,216.633728 
	C279.050964,211.728226 279.050964,207.111328 279.050903,201.496216 
M342.026276,87.487000 
	C352.245117,95.254791 365.398804,93.443611 371.533844,83.195427 
	C369.513672,81.834198 367.480408,80.464165 365.516174,79.140617 
	C356.684509,86.273712 349.441376,85.903061 346.265625,78.128372 
	C350.547394,76.341560 354.831940,74.551506 359.118195,72.765526 
	C363.380737,70.989426 367.644989,69.217422 371.842346,67.471146 
	C368.547607,54.116920 355.677521,48.241451 344.776764,54.744587 
	C333.512115,61.464809 331.966797,76.590637 342.026276,87.487000 
M251.824615,52.507866 
	C242.700119,51.326111 235.435303,54.285255 230.678726,62.345501 
	C226.664413,69.147903 227.370361,78.424103 232.104340,84.417030 
	C237.849442,91.690010 247.138474,94.245872 255.840439,90.948029 
	C263.736725,87.955505 268.893494,79.943291 268.462158,71.337303 
	C267.994324,62.003250 262.446320,55.469780 251.824615,52.507866 
M192.536560,54.906307 
	C184.746704,59.706203 181.601349,66.748550 182.968216,75.666901 
	C184.221909,83.846779 189.136398,89.291557 197.000610,91.488083 
	C205.165649,93.768639 212.500031,91.821007 218.219955,85.266594 
	C224.192657,78.422539 224.520645,67.748413 219.113007,60.299389 
	C213.390717,52.416874 203.299576,50.169647 192.536560,54.906307 
M320.274353,57.499954 
	C320.274353,68.585579 320.274353,79.671204 320.274353,90.857803 
	C323.650513,90.857803 326.258148,90.857803 328.946838,90.857803 
	C328.946838,71.209343 328.946838,51.823879 328.946838,32.391251 
	C326.019348,32.391251 323.424347,32.391251 320.274200,32.391251 
	C320.274200,40.603516 320.274200,48.551735 320.274353,57.499954 
z"/>
<path fill="#4286F5" opacity="1.000000" stroke="none" 
	d="
M65.531342,1.000000 
	C65.993027,83.687622 65.986046,166.375244 65.989532,249.531433 
	C44.358360,250.000000 22.716721,250.000000 1.037540,250.000000 
	C1.037540,167.120911 1.037540,84.241806 1.037540,1.000000 
	C22.352859,1.000000 43.707771,1.000000 65.531342,1.000000 
z"/>
<path fill="#787878" opacity="1.000000" stroke="none" 
	d="
M131.862534,192.002380 
	C131.862473,200.453323 131.862473,208.404984 131.862473,216.642212 
	C127.409073,216.642212 123.499512,216.642212 119.211739,216.642212 
	C119.211739,182.976959 119.211739,149.461411 119.211739,116.124779 
	C133.044235,116.124779 146.775085,114.976189 160.226242,116.424713 
	C175.923798,118.115150 186.235443,132.896973 184.923950,148.792770 
	C183.726288,163.309052 170.605576,175.287247 155.025848,175.809937 
	C147.562515,176.060303 140.083832,175.853043 131.862595,175.853043 
	C131.862595,181.319000 131.862595,186.411057 131.862534,192.002380 
M131.858185,144.501373 
	C131.858185,150.600449 131.858185,156.699524 131.858185,163.194656 
	C139.970535,163.194656 147.432022,163.372620 154.881393,163.148529 
	C163.714554,162.882843 170.816376,155.887085 171.678207,147.015335 
	C172.484406,138.716217 166.108795,129.486954 157.547012,128.547852 
	C149.227768,127.635361 140.730103,128.349777 131.858078,128.349777 
	C131.858078,133.585220 131.858078,138.544083 131.858185,144.501373 
z"/>
<path fill="#797979" opacity="1.000000" stroke="none" 
	d="
M499.954407,153.028015 
	C509.106384,161.670166 511.666199,172.281265 511.431610,184.621201 
	C493.097412,184.621201 475.222565,184.621201 457.460510,184.621201 
	C455.733246,194.292374 464.015228,203.445724 471.112885,205.903259 
	C481.522522,209.507568 491.006042,206.049591 497.832031,195.401230 
	C501.334045,196.857758 504.941925,198.358337 508.508575,199.841766 
	C506.109161,209.887680 494.524384,218.285248 482.416595,219.001709 
	C464.668030,220.051956 451.303314,211.848709 445.819305,196.538376 
	C439.777344,179.670380 444.899048,161.113647 458.342957,151.163132 
	C470.070190,142.483185 486.767426,143.138779 499.954407,153.028015 
M464.436859,161.858643 
	C461.016052,165.030579 458.468445,168.647369 457.734802,173.867752 
	C470.431183,173.867752 482.391632,173.873306 494.352020,173.855377 
	C495.159241,173.854156 495.966156,173.675720 497.336426,173.512680 
	C496.550140,167.096695 493.472565,162.312088 488.016327,159.593292 
	C480.161743,155.679474 472.291595,155.916885 464.436859,161.858643 
z"/>
<path fill="#787878" opacity="1.000000" stroke="none" 
	d="
M209.005646,160.865555 
	C207.077972,162.929657 205.455185,164.779175 203.549332,166.951294 
	C200.110001,165.470123 196.502090,163.916336 192.272552,162.094849 
	C194.911972,155.610825 199.333801,151.205688 205.111374,148.538284 
	C216.800003,143.141891 228.431198,143.769257 239.433228,150.620010 
	C245.524063,154.412659 250.109451,160.149246 250.402588,167.151550 
	C251.088593,183.539200 250.621826,199.975098 250.621826,216.654907 
	C246.856339,216.654907 243.117645,216.654907 238.943207,216.654907 
	C238.943207,213.816360 238.943207,211.232849 238.943207,207.617264 
	C237.433441,209.026550 236.628128,209.696075 235.917297,210.454178 
	C226.237366,220.777802 209.507782,222.227097 198.155991,213.711273 
	C186.455078,204.933517 186.313461,187.063171 198.102173,178.363739 
	C209.088974,170.256073 221.350189,170.462463 233.902359,173.732544 
	C235.314743,174.100494 236.673035,174.676086 238.500153,175.309128 
	C239.176041,168.744415 236.952911,163.832184 231.864105,160.543304 
	C224.441803,155.746292 216.806931,155.969452 209.005646,160.865555 
M236.892639,195.201691 
	C240.135162,186.937454 239.219635,184.515213 230.498230,183.422409 
	C224.551117,182.677231 218.203552,183.019501 212.340820,184.288391 
	C206.186111,185.620453 202.401505,192.204727 203.220398,197.530884 
	C203.978104,202.459030 208.955139,206.468201 215.231232,207.025986 
	C224.695801,207.867157 231.548721,203.624496 236.892639,195.201691 
z"/>
<path fill="#787878" opacity="1.000000" stroke="none" 
	d="
M385.321747,169.732285 
	C384.710175,174.710953 383.940796,179.314941 383.856873,183.931396 
	C383.660980,194.711990 383.794373,205.498581 383.794373,216.604065 
	C379.251312,216.604065 375.197266,216.604065 370.835876,216.604065 
	C370.835876,193.664078 370.835876,170.919113 370.835876,147.756775 
	C374.818085,147.756775 378.686310,147.756775 383.089905,147.756775 
	C383.089905,150.429428 383.089905,152.975586 383.089905,155.521729 
	C383.635437,155.888977 384.180939,156.256226 384.726471,156.623459 
	C385.456818,155.368164 385.935333,153.838348 386.957275,152.900864 
	C395.297485,145.249725 405.014191,143.199951 415.680695,146.741409 
	C425.919983,150.141037 431.072571,158.325775 431.594604,168.323273 
	C432.425629,184.238037 431.816589,200.227997 431.816589,216.558228 
	C427.683594,216.558228 423.646912,216.558228 419.036011,216.558228 
	C419.036011,206.244141 419.051758,196.135742 419.028809,186.027420 
	C419.018616,181.532715 419.212341,177.013153 418.816376,172.548981 
	C418.086334,164.318039 414.248718,159.570404 407.515839,157.862473 
	C399.271393,155.771103 392.464478,158.209457 387.863586,164.994308 
	C386.936371,166.361679 386.264862,167.902466 385.321747,169.732285 
z"/>
<path fill="#7C7C7C" opacity="1.000000" stroke="none" 
	d="
M340.655060,164.059113 
	C340.655640,173.873764 340.637207,183.193909 340.663300,192.513901 
	C340.696442,204.361923 343.850067,207.113190 355.996399,205.354401 
	C357.360077,208.664871 358.781342,212.115082 360.184174,215.520599 
	C346.684906,223.186752 329.502625,215.395279 327.932861,200.495468 
	C326.770386,189.461548 327.443298,178.233841 327.310059,167.092316 
	C327.282654,164.800964 327.306061,162.509018 327.306061,159.575851 
	C323.048615,159.575851 319.323914,159.575851 315.391724,159.575851 
	C315.391724,155.310257 315.391724,151.704376 315.391724,147.446594 
	C319.205933,147.446594 322.927795,147.446594 327.277039,147.446594 
	C327.277039,140.092148 327.277039,133.368790 327.277039,126.422661 
	C331.974548,126.422661 336.029999,126.422661 340.557556,126.422661 
	C340.557556,133.290573 340.557556,139.885559 340.557556,147.020325 
	C346.242096,147.020325 351.481506,147.020325 357.179749,147.020325 
	C357.179749,151.258484 357.179749,154.962906 357.179749,159.553741 
	C353.058472,159.553741 348.800537,159.714432 344.561554,159.500504 
	C341.432373,159.342621 340.279663,160.595474 340.655060,164.059113 
z"/>
<path fill="#498AF5" opacity="1.000000" stroke="none" 
	d="
M128.337830,37.298264 
	C141.955719,27.184978 158.865051,27.756617 169.590485,39.023190 
	C167.616455,40.626160 165.621246,42.246330 163.587540,43.897778 
	C153.645248,36.892174 141.746063,36.190960 132.489777,45.561234 
	C125.459221,52.678371 124.227394,64.124863 129.333618,72.836235 
	C134.478867,81.614166 145.132767,85.707153 155.329727,82.823349 
	C162.985397,80.658249 167.883545,74.685646 167.890869,67.101089 
	C161.624908,67.101089 155.346756,67.101089 148.636444,67.101089 
	C148.636444,64.023033 148.636444,61.343929 148.636444,58.365311 
	C158.042145,58.365311 167.297897,58.365311 176.535599,58.365311 
	C181.463669,72.688271 170.359024,89.486641 154.438919,91.882713 
	C139.365845,94.151306 125.960648,87.298065 119.720734,74.133499 
	C113.750275,61.537411 116.836868,47.996704 128.337830,37.298264 
z"/>
<path fill="#7A7A7A" opacity="1.000000" stroke="none" 
	d="
M524.465210,216.764389 
	C523.747009,215.559296 523.224915,214.480087 523.222351,213.399643 
	C523.171753,192.238235 523.179016,171.076660 523.191345,149.915131 
	C523.191711,149.277100 523.373840,148.639160 523.520996,147.675171 
	C527.507812,147.675171 531.397949,147.675171 535.738281,147.675171 
	C535.738281,150.941696 535.738281,154.024017 535.738281,156.384964 
	C540.245239,153.286575 544.480042,149.610565 549.349304,147.235718 
	C554.564697,144.692093 560.297791,145.405655 566.246887,147.480911 
	C564.852234,150.928101 563.836853,154.101013 562.267273,156.970871 
	C561.689880,158.026550 559.789917,158.969330 558.516296,158.940521 
	C543.848145,158.608780 536.595459,165.469223 536.479919,180.190079 
	C536.400146,190.353577 536.478271,200.518311 536.485291,210.682495 
	C536.486633,212.634903 536.485535,214.587296 536.485535,216.889709 
	C532.191406,216.889709 528.547302,216.889709 524.465210,216.764389 
z"/>
<path fill="#4A8AF4" opacity="1.000000" stroke="none" 
	d="
M311.959167,82.982674 
	C311.624390,88.106262 311.854218,92.862740 310.830566,97.332108 
	C309.017365,105.248718 302.507416,109.919159 293.974304,110.370361 
	C285.625427,110.811806 278.482178,106.296936 275.401031,98.330040 
	C277.619385,97.355637 279.857666,96.372459 282.015350,95.424706 
	C288.687714,102.249763 292.858521,103.712128 297.976746,101.141739 
	C302.125641,99.058113 303.746643,95.037086 302.717102,89.382904 
	C290.987915,94.122154 282.837341,92.299210 276.902832,83.609306 
	C271.501465,75.700096 272.370514,65.344360 279.021484,58.362820 
	C285.726166,51.324909 293.818237,50.323135 302.305664,54.222744 
	C305.248230,53.825764 308.190765,53.428783 311.959198,52.920387 
	C311.959198,63.320381 311.959198,72.903305 311.959167,82.982674 
M283.834991,78.389915 
	C284.301117,79.073555 284.704163,79.812057 285.243408,80.432114 
	C289.359619,85.165146 296.499359,85.570480 300.665833,81.333519 
	C305.368317,76.551468 305.150574,67.329956 300.229614,62.858379 
	C295.649994,58.696976 288.819794,59.388462 284.938446,64.554733 
	C281.901123,68.597618 281.558289,73.059143 283.834991,78.389915 
z"/>
<path fill="#797979" opacity="1.000000" stroke="none" 
	d="
M279.050934,201.995331 
	C279.050964,207.111328 279.050964,211.728226 279.050964,216.633728 
	C274.607086,216.633728 270.690979,216.633728 266.380310,216.633728 
	C266.380310,193.688263 266.380310,170.828995 266.380310,147.651794 
	C270.216705,147.651794 273.972046,147.651794 278.385742,147.651794 
	C278.524200,150.578491 278.661591,153.482498 278.786163,156.115570 
	C282.674011,153.345947 286.255432,149.780975 290.572784,148.001190 
	C294.981537,146.183731 300.112823,146.118958 305.452087,145.196274 
	C305.452087,150.285019 305.452087,154.189728 305.452087,158.713959 
	C303.300262,158.713959 301.204529,158.652313 299.113342,158.724121 
	C286.975433,159.140869 279.264740,166.898834 279.078003,179.017365 
	C278.962585,186.508682 279.052948,194.003159 279.050934,201.995331 
z"/>
<path fill="#EB4A3E" opacity="1.000000" stroke="none" 
	d="
M341.752899,87.252861 
	C331.966797,76.590637 333.512115,61.464809 344.776764,54.744587 
	C355.677521,48.241451 368.547607,54.116920 371.842346,67.471146 
	C367.644989,69.217422 363.380737,70.989426 359.118195,72.765526 
	C354.831940,74.551506 350.547394,76.341560 346.265625,78.128372 
	C349.441376,85.903061 356.684509,86.273712 365.516174,79.140617 
	C367.480408,80.464165 369.513672,81.834198 371.533844,83.195427 
	C365.398804,93.443611 352.245117,95.254791 341.752899,87.252861 
M360.933533,62.798706 
	C357.910339,59.528873 354.296051,59.292152 350.490173,61.013828 
	C346.382935,62.871872 344.368591,66.176956 344.013550,72.146820 
	C350.376282,68.964149 355.831848,66.235252 360.933533,62.798706 
z"/>
<path fill="#F9BE0F" opacity="1.000000" stroke="none" 
	d="
M252.227768,52.600925 
	C262.446320,55.469780 267.994324,62.003250 268.462158,71.337303 
	C268.893494,79.943291 263.736725,87.955505 255.840439,90.948029 
	C247.138474,94.245872 237.849442,91.690010 232.104340,84.417030 
	C227.370361,78.424103 226.664413,69.147903 230.678726,62.345501 
	C235.435303,54.285255 242.700119,51.326111 252.227768,52.600925 
M250.701950,60.565880 
	C245.457825,59.306084 241.472427,61.395210 238.844574,65.715424 
	C236.138931,70.163513 236.254501,74.912254 239.144135,79.358864 
	C241.780014,83.414986 245.650467,84.828804 250.340424,84.052727 
	C255.182938,83.251419 258.681396,79.315575 259.306854,74.087074 
	C260.066498,67.736992 257.585724,63.519436 250.701950,60.565880 
z"/>
<path fill="#EB4A3D" opacity="1.000000" stroke="none" 
	d="
M192.864868,54.716766 
	C203.299576,50.169647 213.390717,52.416874 219.113007,60.299389 
	C224.520645,67.748413 224.192657,78.422539 218.219955,85.266594 
	C212.500031,91.821007 205.165649,93.768639 197.000610,91.488083 
	C189.136398,89.291557 184.221909,83.846779 182.968216,75.666901 
	C181.601349,66.748550 184.746704,59.706203 192.864868,54.716766 
M214.002060,72.456879 
	C213.111359,63.605232 207.149323,58.555462 199.991028,60.589741 
	C194.152451,62.248978 190.897842,67.577744 191.720993,74.130257 
	C192.449875,79.932243 196.633087,83.968941 202.210663,84.252518 
	C208.405441,84.567482 212.444717,80.804619 214.002060,72.456879 
z"/>
<path fill="#3FAD5C" opacity="1.000000" stroke="none" 
	d="
M320.274292,56.999954 
	C320.274200,48.551735 320.274200,40.603516 320.274200,32.391251 
	C323.424347,32.391251 326.019348,32.391251 328.946838,32.391251 
	C328.946838,51.823879 328.946838,71.209343 328.946838,90.857803 
	C326.258148,90.857803 323.650513,90.857803 320.274353,90.857803 
	C320.274353,79.671204 320.274353,68.585579 320.274292,56.999954 
z"/>
<path fill="#FDFDFD" opacity="1.000000" stroke="none" 
	d="
M131.858124,144.002167 
	C131.858078,138.544083 131.858078,133.585220 131.858078,128.349777 
	C140.730103,128.349777 149.227768,127.635361 157.547012,128.547852 
	C166.108795,129.486954 172.484406,138.716217 171.678207,147.015335 
	C170.816376,155.887085 163.714554,162.882843 154.881393,163.148529 
	C147.432022,163.372620 139.970535,163.194656 131.858185,163.194656 
	C131.858185,156.699524 131.858185,150.600449 131.858124,144.002167 
z"/>
<path fill="#FAFAFA" opacity="1.000000" stroke="none" 
	d="
M464.718933,161.623901 
	C472.291595,155.916885 480.161743,155.679474 488.016327,159.593292 
	C493.472565,162.312088 496.550140,167.096695 497.336426,173.512680 
	C495.966156,173.675720 495.159241,173.854156 494.352020,173.855377 
	C482.391632,173.873306 470.431183,173.867752 457.734802,173.867752 
	C458.468445,168.647369 461.016052,165.030579 464.718933,161.623901 
z"/>
<path fill="#FBFBFB" opacity="1.000000" stroke="none" 
	d="
M236.705719,195.525558 
	C231.548721,203.624496 224.695801,207.867157 215.231232,207.025986 
	C208.955139,206.468201 203.978104,202.459030 203.220398,197.530884 
	C202.401505,192.204727 206.186111,185.620453 212.340820,184.288391 
	C218.203552,183.019501 224.551117,182.677231 230.498230,183.422409 
	C239.219635,184.515213 240.135162,186.937454 236.705719,195.525558 
z"/>
<path fill="#F8FBFE" opacity="1.000000" stroke="none" 
	d="
M283.656372,78.051247 
	C281.558289,73.059143 281.901123,68.597618 284.938446,64.554733 
	C288.819794,59.388462 295.649994,58.696976 300.229614,62.858379 
	C305.150574,67.329956 305.368317,76.551468 300.665833,81.333519 
	C296.499359,85.570480 289.359619,85.165146 285.243408,80.432114 
	C284.704163,79.812057 284.301117,79.073555 283.656372,78.051247 
z"/>
<path fill="#FCF0EE" opacity="1.000000" stroke="none" 
	d="
M361.110474,63.152527 
	C355.831848,66.235252 350.376282,68.964149 344.013550,72.146820 
	C344.368591,66.176956 346.382935,62.871872 350.490173,61.013828 
	C354.296051,59.292152 357.910339,59.528873 361.110474,63.152527 
z"/>
<path fill="#FEFCF7" opacity="1.000000" stroke="none" 
	d="
M251.079926,60.654388 
	C257.585724,63.519436 260.066498,67.736992 259.306854,74.087074 
	C258.681396,79.315575 255.182938,83.251419 250.340424,84.052727 
	C245.650467,84.828804 241.780014,83.414986 239.144135,79.358864 
	C236.254501,74.912254 236.138931,70.163513 238.844574,65.715424 
	C241.472427,61.395210 245.457825,59.306084 251.079926,60.654388 
z"/>
<path fill="#FDF9F8" opacity="1.000000" stroke="none" 
	d="
M213.997208,72.866974 
	C212.444717,80.804619 208.405441,84.567482 202.210663,84.252518 
	C196.633087,83.968941 192.449875,79.932243 191.720993,74.130257 
	C190.897842,67.577744 194.152451,62.248978 199.991028,60.589741 
	C207.149323,58.555462 213.111359,63.605232 213.997208,72.866974 
z"/>
</svg>