<svg width="639" height="96" viewBox="0 0 639 96" fill="none" xmlns="http://www.w3.org/2000/svg">
<rect x="459" width="180" height="96" rx="48" fill="black"/>
<path d="M607.684 36.2513C607.684 35.4228 607.013 34.7513 606.184 34.7513L592.684 34.7513C591.856 34.7513 591.184 35.4228 591.184 36.2513C591.184 37.0797 591.856 37.7513 592.684 37.7513L604.684 37.7513L604.684 49.7513C604.684 50.5797 605.356 51.2513 606.184 51.2513C607.013 51.2513 607.684 50.5797 607.684 49.7513L607.684 36.2513ZM582.496 62.0607L607.245 37.3119L605.124 35.1906L580.375 59.9393L582.496 62.0607Z" fill="white"/>
<rect x="0.5" y="0.5" width="545" height="95" rx="47.5" fill="white"/>
<rect x="0.5" y="0.5" width="545" height="95" rx="47.5" stroke="black"/>
<path d="M58.93 25H70.06V74H58.93V53.49H39.47V74H28.41V25H39.47V44.04H58.93V25ZM98.5292 74.56C86.9092 74.56 78.8592 68.33 78.8592 55.8V25H89.1492V55.73C89.1492 62.1 93.0692 64.97 98.5292 64.97C103.989 64.97 107.909 62.1 107.909 55.73V25H118.199V55.8C118.199 68.33 110.149 74.56 98.5292 74.56ZM127.053 74V25H146.723C155.613 25 162.403 29.41 162.403 37.6C162.403 42.22 159.533 45.72 156.663 47.26C161.143 49.01 164.853 53 164.853 59.37C164.853 68.68 157.643 74 147.283 74H127.053ZM137.903 43.55H145.883C150.223 43.55 152.183 41.66 152.183 38.65C152.183 35.57 150.223 33.68 145.673 33.68H137.903V43.55ZM137.903 64.48H146.303C152.043 64.48 154.493 62.52 154.493 58.74C154.493 54.89 152.043 52.79 146.303 52.79H137.903V64.48ZM187.796 74.56C177.996 74.56 169.736 67.91 168.826 58.95L178.486 56.08C179.116 61.54 183.386 65.18 188.216 65.18C192.626 65.18 195.496 63.08 195.496 60C195.496 50.76 170.366 56.22 170.366 38.23C170.366 30.18 178.066 24.44 187.656 24.44C197.106 24.44 204.736 29.48 206.416 36.97L196.546 41.1C195.566 36.69 192.276 33.82 187.656 33.82C183.806 33.82 181.426 35.43 181.426 38.16C181.426 45.93 206.626 39.7 206.626 59.72C206.626 68.61 199.066 74.56 187.796 74.56ZM213.119 74V25H233.419C243.569 25 250.079 31.02 250.079 40.33C250.079 49.64 243.569 55.66 233.419 55.66H224.179V74H213.119ZM224.179 46.21H232.299C236.499 46.21 239.019 43.97 239.019 40.33C239.019 36.69 236.499 34.45 232.299 34.45H224.179V46.21ZM278.805 74.56C264.245 74.56 253.605 63.92 253.605 49.5C253.605 35.08 264.245 24.44 278.805 24.44C293.225 24.44 303.865 35.08 303.865 49.5C303.865 63.92 293.225 74.56 278.805 74.56ZM278.735 65.04C286.925 65.04 292.805 58.46 292.805 49.5C292.805 40.54 286.925 33.89 278.735 33.89C270.475 33.89 264.665 40.54 264.665 49.5C264.665 58.46 270.475 65.04 278.735 65.04ZM318.853 74V34.45H304.433V25H344.263V34.45H329.913V74H318.853ZM388.919 74.56C375.619 74.56 364.279 66.02 364.279 49.5C364.279 32.98 375.829 24.44 388.919 24.44C401.169 24.44 409.709 31.02 411.109 41.17L400.119 43.48C398.999 37.6 394.519 33.89 388.849 33.89C381.429 33.89 375.409 39.28 375.409 49.5C375.409 59.72 381.359 65.04 388.849 65.04C394.589 65.04 398.719 61.75 399.839 56.5L410.969 59.02C408.659 68.75 400.469 74.56 388.919 74.56ZM458.94 74H445.99L435.35 54.82H429.19V74H418.13L417.99 25H437.52C447.18 25 453.48 30.88 453.48 39.91C453.48 45.23 450.89 49.92 446.41 52.51L458.94 74ZM429.19 34.45V45.37H435.63C439.97 45.37 442.42 43.34 442.42 39.91C442.42 36.48 439.97 34.45 435.63 34.45H429.19ZM464.133 74V25H476.313L490.523 58.32L504.733 25H516.913V74H506.623V45.51L494.583 74H486.533L474.423 45.51V74H464.133Z" fill="black"/>
</svg>
