<svg width="601" height="72" viewBox="0 0 601 72" fill="none" xmlns="http://www.w3.org/2000/svg">
<rect x="421" y="-0.00390625" width="180" height="72" rx="36" fill="black"/>
<path d="M562.613 27.3233C562.613 26.4949 561.942 25.8233 561.113 25.8233L547.613 25.8233C546.785 25.8233 546.113 26.4949 546.113 27.3233C546.113 28.1517 546.785 28.8233 547.613 28.8233H559.613V40.8233C559.613 41.6517 560.285 42.3233 561.113 42.3233C561.942 42.3233 562.613 41.6517 562.613 40.8233L562.613 27.3233ZM544.496 46.0616L562.174 28.384L560.053 26.2626L542.375 43.9403L544.496 46.0616Z" fill="white"/>
<rect x="0.5" y="0.496094" width="509" height="71" rx="35.5" fill="white"/>
<rect x="0.5" y="0.496094" width="509" height="71" rx="35.5" stroke="black"/>
<path d="M27.15 55.9961V20.9961H35.05V49.1961H50.75V55.9961H27.15ZM54.4449 55.9961V20.9961H78.4949V27.7461H62.3449V34.1461H75.1449V40.9461H62.3449V49.1961H79.0449V55.9961H54.4449ZM91.6406 55.9961V27.7461H81.3406V20.9961H109.791V27.7461H99.5406V55.9961H91.6406ZM114.325 34.0461L112.675 20.5961H120.425L118.825 34.0461H114.325ZM137.433 56.3961C130.433 56.3961 124.533 51.6461 123.883 45.2461L130.783 43.1961C131.233 47.0961 134.283 49.6961 137.733 49.6961C140.883 49.6961 142.933 48.1961 142.933 45.9961C142.933 39.3961 124.983 43.2961 124.983 30.4461C124.983 24.6961 130.483 20.5961 137.333 20.5961C144.083 20.5961 149.533 24.1961 150.733 29.5461L143.683 32.4961C142.983 29.3461 140.633 27.2961 137.333 27.2961C134.583 27.2961 132.883 28.4461 132.883 30.3961C132.883 35.9461 150.883 31.4961 150.883 45.7961C150.883 52.1461 145.483 56.3961 137.433 56.3961ZM183.183 56.3961C174.233 56.3961 165.933 50.4461 165.933 38.4961C165.933 26.5461 174.483 20.5961 183.783 20.5961C192.533 20.5961 198.583 25.0961 199.883 32.5461L192.083 34.1461C191.283 30.0461 188.033 27.3461 183.683 27.3461C177.883 27.3461 173.833 31.4461 173.833 38.4961C173.833 45.5461 177.883 49.5961 183.583 49.5961C188.233 49.5961 191.533 46.9961 191.983 43.2461H182.483V36.9461H199.283V55.9961H192.083V52.3461C190.633 54.7961 187.083 56.3961 183.183 56.3961ZM205.275 55.9961V20.9961H229.325V27.7461H213.175V34.1461H225.975V40.9461H213.175V49.1961H229.875V55.9961H205.275ZM242.471 55.9961V27.7461H232.171V20.9961H260.621V27.7461H250.371V55.9961H242.471ZM288.068 56.3961C281.068 56.3961 275.168 51.6461 274.518 45.2461L281.418 43.1961C281.868 47.0961 284.918 49.6961 288.368 49.6961C291.518 49.6961 293.568 48.1961 293.568 45.9961C293.568 39.3961 275.618 43.2961 275.618 30.4461C275.618 24.6961 281.118 20.5961 287.968 20.5961C294.718 20.5961 300.168 24.1961 301.368 29.5461L294.318 32.4961C293.618 29.3461 291.268 27.2961 287.968 27.2961C285.218 27.2961 283.518 28.4461 283.518 30.3961C283.518 35.9461 301.518 31.4961 301.518 45.7961C301.518 52.1461 296.118 56.3961 288.068 56.3961ZM313.125 55.9961V27.7461H302.825V20.9961H331.275V27.7461H321.025V55.9961H313.125ZM353.518 55.9961L350.968 48.7961H338.468L335.918 55.9961H327.718L340.968 20.9961H348.418L361.668 55.9961H353.518ZM340.868 42.1961H348.568L344.718 31.3461L340.868 42.1961ZM393.998 55.9961H384.748L377.148 42.2961H372.748V55.9961H364.848L364.748 20.9961H378.698C385.598 20.9961 390.098 25.1961 390.098 31.6461C390.098 35.4461 388.248 38.7961 385.048 40.6461L393.998 55.9961ZM372.748 27.7461V35.5461H377.348C380.448 35.5461 382.198 34.0961 382.198 31.6461C382.198 29.1961 380.448 27.7461 377.348 27.7461H372.748ZM402.773 55.9961V27.7461H392.473V20.9961H420.923V27.7461H410.673V55.9961H402.773ZM423.976 55.9961V20.9961H448.026V27.7461H431.876V34.1461H444.676V40.9461H431.876V49.1961H448.576V55.9961H423.976ZM453.322 55.9961V20.9961H465.272C474.872 20.9961 483.422 26.4961 483.422 38.4961C483.422 50.4961 474.872 55.9961 465.272 55.9961H453.322ZM461.072 49.1961H464.422C470.072 49.1961 475.472 46.5961 475.472 38.4961C475.472 30.3961 470.072 27.7461 464.422 27.7461H461.072V49.1961Z" fill="black"/>
</svg>
