<svg width="601" height="72" viewBox="0 0 601 72" fill="none" xmlns="http://www.w3.org/2000/svg">
<rect x="421" width="180" height="72" rx="36" fill="black"/>
<path d="M562.613 27.3272C562.613 26.4988 561.942 25.8272 561.113 25.8272L547.613 25.8272C546.785 25.8272 546.113 26.4988 546.113 27.3272C546.113 28.1556 546.785 28.8272 547.613 28.8272H559.613V40.8272C559.613 41.6556 560.285 42.3272 561.113 42.3272C561.942 42.3272 562.613 41.6556 562.613 40.8272L562.613 27.3272ZM544.496 46.0655L562.174 28.3879L560.053 26.2666L542.375 43.9442L544.496 46.0655Z" fill="white"/>
<rect x="0.5" y="0.5" width="509" height="71" rx="35.5" fill="white"/>
<rect x="0.5" y="0.5" width="509" height="71" rx="35.5" stroke="black"/>
<path d="M27.15 56V21H35.05V49.2H50.75V56H27.15ZM54.4449 56V21H78.4949V27.75H62.3449V34.15H75.1449V40.95H62.3449V49.2H79.0449V56H54.4449ZM91.6406 56V27.75H81.3406V21H109.791V27.75H99.5406V56H91.6406ZM114.325 34.05L112.675 20.6H120.425L118.825 34.05H114.325ZM137.433 56.4C130.433 56.4 124.533 51.65 123.883 45.25L130.783 43.2C131.233 47.1 134.283 49.7 137.733 49.7C140.883 49.7 142.933 48.2 142.933 46C142.933 39.4 124.983 43.3 124.983 30.45C124.983 24.7 130.483 20.6 137.333 20.6C144.083 20.6 149.533 24.2 150.733 29.55L143.683 32.5C142.983 29.35 140.633 27.3 137.333 27.3C134.583 27.3 132.883 28.45 132.883 30.4C132.883 35.95 150.883 31.5 150.883 45.8C150.883 52.15 145.483 56.4 137.433 56.4ZM183.183 56.4C174.233 56.4 165.933 50.45 165.933 38.5C165.933 26.55 174.483 20.6 183.783 20.6C192.533 20.6 198.583 25.1 199.883 32.55L192.083 34.15C191.283 30.05 188.033 27.35 183.683 27.35C177.883 27.35 173.833 31.45 173.833 38.5C173.833 45.55 177.883 49.6 183.583 49.6C188.233 49.6 191.533 47 191.983 43.25H182.483V36.95H199.283V56H192.083V52.35C190.633 54.8 187.083 56.4 183.183 56.4ZM205.275 56V21H229.325V27.75H213.175V34.15H225.975V40.95H213.175V49.2H229.875V56H205.275ZM242.471 56V27.75H232.171V21H260.621V27.75H250.371V56H242.471ZM288.068 56.4C281.068 56.4 275.168 51.65 274.518 45.25L281.418 43.2C281.868 47.1 284.918 49.7 288.368 49.7C291.518 49.7 293.568 48.2 293.568 46C293.568 39.4 275.618 43.3 275.618 30.45C275.618 24.7 281.118 20.6 287.968 20.6C294.718 20.6 300.168 24.2 301.368 29.55L294.318 32.5C293.618 29.35 291.268 27.3 287.968 27.3C285.218 27.3 283.518 28.45 283.518 30.4C283.518 35.95 301.518 31.5 301.518 45.8C301.518 52.15 296.118 56.4 288.068 56.4ZM313.125 56V27.75H302.825V21H331.275V27.75H321.025V56H313.125ZM353.518 56L350.968 48.8H338.468L335.918 56H327.718L340.968 21H348.418L361.668 56H353.518ZM340.868 42.2H348.568L344.718 31.35L340.868 42.2ZM393.998 56H384.748L377.148 42.3H372.748V56H364.848L364.748 21H378.698C385.598 21 390.098 25.2 390.098 31.65C390.098 35.45 388.248 38.8 385.048 40.65L393.998 56ZM372.748 27.75V35.55H377.348C380.448 35.55 382.198 34.1 382.198 31.65C382.198 29.2 380.448 27.75 377.348 27.75H372.748ZM402.773 56V27.75H392.473V21H420.923V27.75H410.673V56H402.773ZM423.976 56V21H448.026V27.75H431.876V34.15H444.676V40.95H431.876V49.2H448.576V56H423.976ZM453.322 56V21H465.272C474.872 21 483.422 26.5 483.422 38.5C483.422 50.5 474.872 56 465.272 56H453.322ZM461.072 49.2H464.422C470.072 49.2 475.472 46.6 475.472 38.5C475.472 30.4 470.072 27.75 464.422 27.75H461.072V49.2Z" fill="black"/>
</svg>
