<svg width="1017" height="96" viewBox="0 0 1017 96" fill="none" xmlns="http://www.w3.org/2000/svg">
<rect x="837" width="180" height="96" rx="48" fill="black"/>
<path d="M985.685 36.2513C985.685 35.4228 985.013 34.7513 984.185 34.7513L970.685 34.7513C969.856 34.7513 969.185 35.4228 969.185 36.2513C969.185 37.0797 969.856 37.7513 970.685 37.7513L982.685 37.7513L982.685 49.7513C982.685 50.5797 983.356 51.2513 984.185 51.2513C985.013 51.2513 985.685 50.5797 985.685 49.7513L985.685 36.2513ZM960.496 62.0607L985.245 37.3119L983.124 35.1906L958.375 59.9393L960.496 62.0607Z" fill="white"/>
<rect x="0.5" y="0.5" width="928" height="95" rx="47.5" fill="white"/>
<rect x="0.5" y="0.5" width="928" height="95" rx="47.5" stroke="black"/>
<path d="M28.41 74V25H40.59L54.8 58.32L69.01 25H81.19V74H70.9V45.51L58.86 74H50.81L38.7 45.51V74H28.41ZM122.132 74L118.562 63.92H101.062L97.4918 74H86.0118L104.562 25H114.992L133.542 74H122.132ZM104.422 54.68H115.202L109.812 39.49L104.422 54.68ZM178.803 74H165.853L155.213 54.82H149.053V74H137.993L137.853 25H157.383C167.043 25 173.343 30.88 173.343 39.91C173.343 45.23 170.753 49.92 166.273 52.51L178.803 74ZM149.053 34.45V45.37H155.493C159.833 45.37 162.283 43.34 162.283 39.91C162.283 36.48 159.833 34.45 155.493 34.45H149.053ZM213.956 74L199.816 52.65L195.056 57.69V74H183.996V25H195.056V42.92L211.786 25H226.276L207.516 44.67L227.886 74H213.956ZM232.599 74V25H266.269V34.45H243.659V43.41H261.579V52.93H243.659V64.48H267.039V74H232.599ZM284.673 74V34.45H270.253V25H310.083V34.45H295.733V74H284.673ZM314.357 74V25H325.417V74H314.357ZM334.25 74V25H345.24L364.28 56.5V25H374.57V74H363.58L344.54 42.5V74H334.25ZM405.45 74.56C392.92 74.56 381.3 66.23 381.3 49.5C381.3 32.77 393.27 24.44 406.29 24.44C418.54 24.44 427.01 30.74 428.83 41.17L417.91 43.41C416.79 37.67 412.24 33.89 406.15 33.89C398.03 33.89 392.36 39.63 392.36 49.5C392.36 59.37 398.03 65.04 406.01 65.04C412.52 65.04 417.14 61.4 417.77 56.15H404.47V47.33H427.99V74H417.91V68.89C415.88 72.32 410.91 74.56 405.45 74.56ZM485.257 74L481.687 63.92H464.187L460.617 74H449.137L467.687 25H478.117L496.667 74H485.257ZM467.547 54.68H478.327L472.937 39.49L467.547 54.68ZM518.461 74.56C506.841 74.56 498.791 68.33 498.791 55.8V25H509.081V55.73C509.081 62.1 513.001 64.97 518.461 64.97C523.921 64.97 527.841 62.1 527.841 55.73V25H538.131V55.8C538.131 68.33 530.081 74.56 518.461 74.56ZM557.974 74V34.45H543.554V25H583.384V34.45H569.034V74H557.974ZM609.186 74.56C594.626 74.56 583.986 63.92 583.986 49.5C583.986 35.08 594.626 24.44 609.186 24.44C623.606 24.44 634.246 35.08 634.246 49.5C634.246 63.92 623.606 74.56 609.186 74.56ZM609.116 65.04C617.306 65.04 623.186 58.46 623.186 49.5C623.186 40.54 617.306 33.89 609.116 33.89C600.856 33.89 595.046 40.54 595.046 49.5C595.046 58.46 600.856 65.04 609.116 65.04ZM640.91 74V25H653.09L667.3 58.32L681.51 25H693.69V74H683.4V45.51L671.36 74H663.31L651.2 45.51V74H640.91ZM734.632 74L731.062 63.92H713.562L709.992 74H698.512L717.062 25H727.492L746.042 74H734.632ZM716.922 54.68H727.702L722.312 39.49L716.922 54.68ZM755.533 74V34.45H741.113V25H780.943V34.45H766.593V74H755.533ZM785.217 74V25H796.277V74H785.217ZM828.209 74.56C813.649 74.56 803.009 63.92 803.009 49.5C803.009 35.08 813.649 24.44 828.209 24.44C842.629 24.44 853.269 35.08 853.269 49.5C853.269 63.92 842.629 74.56 828.209 74.56ZM828.139 65.04C836.329 65.04 842.209 58.46 842.209 49.5C842.209 40.54 836.329 33.89 828.139 33.89C819.879 33.89 814.069 40.54 814.069 49.5C814.069 58.46 819.879 65.04 828.139 65.04ZM859.933 74V25H870.923L889.963 56.5V25H900.253V74H889.263L870.223 42.5V74H859.933Z" fill="black"/>
</svg>
