<svg width="540" height="96" viewBox="0 0 540 96" fill="none" xmlns="http://www.w3.org/2000/svg">
<rect x="360" width="180" height="96" rx="48" fill="black"/>
<path d="M508.685 36.2513C508.685 35.4228 508.013 34.7513 507.185 34.7513L493.685 34.7513C492.856 34.7513 492.185 35.4228 492.185 36.2513C492.185 37.0797 492.856 37.7513 493.685 37.7513L505.685 37.7513L505.685 49.7513C505.685 50.5797 506.356 51.2513 507.185 51.2513C508.013 51.2513 508.685 50.5797 508.685 49.7513L508.685 36.2513ZM483.496 62.0607L508.245 37.3119L506.124 35.1906L481.375 59.9393L483.496 62.0607Z" fill="white"/>
<rect x="0.5" y="0.5" width="455" height="95" rx="47.5" fill="white"/>
<rect x="0.5" y="0.5" width="455" height="95" rx="47.5" stroke="black"/>
<path d="M28.41 74V25H40.59L54.8 58.32L69.01 25H81.19V74H70.9V45.51L58.86 74H50.81L38.7 45.51V74H28.41ZM122.132 74L118.562 63.92H101.062L97.4918 74H86.0118L104.562 25H114.992L133.542 74H122.132ZM104.422 54.68H115.202L109.812 39.49L104.422 54.68ZM178.803 74H165.853L155.213 54.82H149.053V74H137.993L137.853 25H157.383C167.043 25 173.343 30.88 173.343 39.91C173.343 45.23 170.753 49.92 166.273 52.51L178.803 74ZM149.053 34.45V45.37H155.493C159.833 45.37 162.283 43.34 162.283 39.91C162.283 36.48 159.833 34.45 155.493 34.45H149.053ZM213.956 74L199.816 52.65L195.056 57.69V74H183.996V25H195.056V42.92L211.786 25H226.276L207.516 44.67L227.886 74H213.956ZM232.599 74V25H266.269V34.45H243.659V43.41H261.579V52.93H243.659V64.48H267.039V74H232.599ZM284.673 74V34.45H270.253V25H310.083V34.45H295.733V74H284.673ZM314.357 74V25H325.417V74H314.357ZM334.25 74V25H345.24L364.28 56.5V25H374.57V74H363.58L344.54 42.5V74H334.25ZM405.45 74.56C392.92 74.56 381.3 66.23 381.3 49.5C381.3 32.77 393.27 24.44 406.29 24.44C418.54 24.44 427.01 30.74 428.83 41.17L417.91 43.41C416.79 37.67 412.24 33.89 406.15 33.89C398.03 33.89 392.36 39.63 392.36 49.5C392.36 59.37 398.03 65.04 406.01 65.04C412.52 65.04 417.14 61.4 417.77 56.15H404.47V47.33H427.99V74H417.91V68.89C415.88 72.32 410.91 74.56 405.45 74.56Z" fill="black"/>
</svg>
