<?xml version="1.0" standalone="no"?>
<!DOCTYPE svg PUBLIC "-//W3C//DTD SVG 20010904//EN"
 "http://www.w3.org/TR/2001/REC-SVG-20010904/DTD/svg10.dtd">
<svg version="1.0" xmlns="http://www.w3.org/2000/svg"
 width="632.000000pt" height="351.000000pt" viewBox="0 0 632.000000 351.000000"
 preserveAspectRatio="xMidYMid meet">

<g transform="translate(0.000000,351.000000) scale(0.100000,-0.100000)"
fill="#000000" stroke="none">
<path d="M1142 2629 c-105 -52 -191 -172 -244 -339 -19 -64 -23 -96 -23 -215
0 -134 1 -143 29 -198 50 -102 153 -152 262 -128 104 24 171 97 313 344 l79
138 98 -161 c107 -175 184 -269 245 -301 132 -67 277 -7 326 135 26 74 23 273
-5 377 -76 282 -276 438 -455 356 -52 -24 -136 -96 -169 -145 l-15 -23 -63 66
c-123 127 -249 159 -378 94z m773 -98 c121 -55 205 -246 205 -466 0 -126 -29
-174 -105 -175 -67 0 -94 32 -265 314 l-103 170 18 32 c21 40 90 108 130 128
39 21 71 20 120 -3z m-579 -37 c32 -15 124 -107 144 -145 7 -12 -16 -55 -87
-165 -164 -255 -201 -294 -276 -294 -74 0 -113 80 -104 215 11 153 83 318 166
380 41 30 105 34 157 9z"/>
<path d="M2550 2195 l0 -435 70 0 70 0 2 332 3 332 128 -233 129 -232 65 3 65
3 127 229 126 229 3 -332 2 -331 70 0 70 0 0 435 0 435 -84 0 -84 0 -25 -42
c-13 -24 -79 -143 -147 -266 l-123 -224 -146 266 -146 266 -87 0 -88 0 0 -435z"/>
<path d="M4400 2505 l0 -95 -65 0 -65 0 0 -55 0 -55 64 0 64 0 5 -197 c3 -125
9 -212 18 -236 34 -101 166 -149 302 -111 13 4 17 17 17 60 l0 55 -49 -7 c-65
-8 -117 9 -136 46 -12 23 -15 70 -15 210 l0 180 100 0 100 0 0 55 0 55 -100 0
-100 0 0 95 0 95 -70 0 -70 0 0 -95z"/>
<path d="M3885 2421 c-178 -24 -288 -175 -272 -372 15 -176 127 -289 304 -305
101 -9 226 29 276 83 17 19 16 21 -14 59 -17 21 -34 39 -37 39 -4 0 -29 -13
-55 -29 -68 -40 -166 -48 -230 -17 -47 23 -91 76 -102 124 l-7 27 242 0 243 0
-6 73 c-16 218 -152 344 -342 318z m106 -125 c58 -24 99 -83 99 -142 l0 -24
-171 0 -171 0 6 32 c15 76 99 148 172 148 17 0 47 -6 65 -14z"/>
<path d="M5014 2409 c-211 -61 -282 -397 -121 -576 99 -109 275 -122 385 -28
l42 37 0 -41 0 -41 65 0 65 0 0 325 0 325 -65 0 -65 0 0 -42 0 -42 -27 27
c-63 59 -184 84 -279 56z m188 -119 c21 -6 51 -27 72 -50 l36 -40 0 -111 c0
-126 -10 -155 -64 -189 -105 -65 -220 -41 -274 57 -64 116 -21 284 83 329 36
16 97 17 147 4z"/>
<path d="M850 1065 l0 -205 105 0 c157 0 205 28 205 119 0 36 -5 49 -32 75
l-33 31 23 22 c15 15 22 34 22 58 0 83 -39 105 -185 105 l-105 0 0 -205z m197
154 c33 -12 43 -26 43 -61 0 -41 -33 -58 -112 -58 l-68 0 0 65 0 65 54 0 c30
0 67 -5 83 -11z m38 -194 c28 -27 31 -45 14 -78 -18 -34 -28 -37 -116 -37
l-83 0 0 70 0 70 80 0 c73 0 83 -3 105 -25z"/>
<path d="M1880 1245 c0 -20 5 -25 25 -25 20 0 25 5 25 25 0 20 -5 25 -25 25
-20 0 -25 -5 -25 -25z"/>
<path d="M3430 1065 l0 -205 30 0 30 0 0 85 0 85 81 0 c97 0 141 17 163 65 20
41 20 66 2 110 -23 53 -57 65 -191 65 l-115 0 0 -205z m239 141 c14 -13 21
-31 21 -57 0 -52 -28 -69 -124 -76 l-76 -6 0 83 0 82 79 -3 c60 -3 84 -9 100
-23z"/>
<path d="M4398 1246 c-12 -8 -18 -27 -18 -50 0 -29 -4 -36 -20 -36 -13 0 -20
-7 -20 -20 0 -13 7 -20 20 -20 19 0 20 -7 20 -118 0 -78 4 -122 12 -130 7 -7
29 -12 50 -12 31 0 38 4 38 19 0 13 -8 21 -22 23 -22 3 -23 8 -26 111 l-3 107
26 0 c18 0 25 5 25 20 0 15 -7 20 -25 20 -23 0 -25 3 -25 50 0 53 -4 58 -32
36z"/>
<path d="M1643 1159 c-43 -13 -76 -55 -68 -89 10 -39 35 -58 110 -82 62 -20
70 -26 70 -48 0 -54 -107 -64 -130 -12 -12 28 -55 31 -55 3 0 -31 48 -69 95
-77 83 -12 145 27 145 91 0 47 -18 63 -100 89 -81 26 -104 46 -80 71 9 8 30
17 47 21 26 5 37 1 58 -20 25 -25 65 -36 65 -17 0 51 -87 90 -157 70z"/>
<path d="M2701 1157 c-41 -16 -61 -42 -61 -79 0 -40 29 -64 109 -88 51 -16 72
-27 77 -42 9 -30 -19 -53 -67 -53 -32 0 -46 6 -65 28 -12 15 -32 27 -44 27
-24 0 -24 -2 -4 -41 38 -74 169 -77 218 -7 39 55 3 107 -89 133 -33 9 -66 22
-72 27 -21 17 -15 44 12 56 37 17 50 15 83 -13 17 -14 39 -25 51 -25 17 0 19
4 12 22 -18 51 -98 78 -160 55z"/>
<path d="M2984 1151 c-43 -19 -54 -36 -54 -77 0 -36 32 -61 109 -84 51 -16 72
-27 77 -42 9 -30 -19 -53 -67 -53 -32 0 -46 6 -65 28 -12 15 -32 27 -44 27
-25 0 -25 -7 -1 -46 39 -64 152 -72 204 -14 54 60 26 115 -75 144 -34 11 -69
23 -75 29 -42 32 22 80 76 57 16 -6 32 -18 35 -26 3 -8 17 -14 30 -14 22 0 24
3 17 22 -20 56 -102 79 -167 49z"/>
<path d="M1260 1045 c0 -133 11 -167 61 -184 46 -16 62 -14 103 14 34 23 36
23 36 5 0 -13 7 -20 20 -20 19 0 20 7 20 150 l0 150 -25 0 -25 0 0 -110 c0
-97 -2 -112 -20 -130 -29 -29 -72 -30 -102 -3 -15 14 -18 34 -18 130 l0 113
-25 0 -25 0 0 -115z"/>
<path d="M1880 1010 l0 -150 25 0 25 0 0 150 0 150 -25 0 -25 0 0 -150z"/>
<path d="M2000 1010 l0 -150 25 0 c25 0 25 1 25 89 0 134 19 171 89 171 50 0
61 -28 61 -152 l0 -108 26 0 26 0 -4 126 c-3 124 -3 126 -31 150 -37 31 -103
33 -141 3 l-26 -20 0 20 c0 16 -6 21 -25 21 l-25 0 0 -150z"/>
<path d="M2370 1138 c-71 -49 -80 -179 -17 -246 26 -28 89 -46 133 -37 37 6
94 55 94 79 0 26 -40 18 -70 -14 -17 -18 -38 -30 -54 -30 -33 0 -85 47 -88 80
l-3 25 113 3 113 3 -7 37 c-15 85 -57 122 -137 122 -29 0 -55 -8 -77 -22z
m139 -39 c12 -11 21 -29 21 -39 0 -18 -7 -20 -80 -20 -71 0 -80 2 -80 18 0 22
37 58 65 64 29 6 50 -1 74 -23z"/>
<path d="M3859 1145 c-15 -8 -32 -28 -37 -45 -10 -28 -9 -30 12 -30 14 0 30
10 40 25 13 20 25 25 59 25 53 0 80 -18 75 -50 -3 -21 -11 -25 -72 -37 -78
-14 -113 -33 -126 -69 -21 -54 13 -99 82 -110 30 -5 63 4 121 34 4 2 7 -3 7
-12 0 -11 9 -16 30 -16 28 0 29 2 20 26 -6 14 -10 72 -10 129 0 100 -1 104
-26 124 -32 25 -134 29 -175 6z m151 -168 c0 -59 -62 -101 -119 -81 -31 11
-40 54 -17 73 12 10 89 34 129 40 4 1 7 -14 7 -32z"/>
<path d="M4140 1010 l0 -150 25 0 25 0 0 103 c0 121 11 147 64 147 33 0 53 20
40 41 -10 17 -67 9 -91 -13 l-23 -21 0 21 c0 15 -6 22 -20 22 -19 0 -20 -7
-20 -150z"/>
<path d="M4530 1010 l0 -150 25 0 25 0 0 104 c0 89 3 107 21 130 15 19 30 26
54 26 57 0 65 -17 65 -146 l0 -114 25 0 25 0 0 125 c0 123 -1 126 -26 150 -35
33 -109 35 -148 4 l-26 -20 0 20 c0 14 -6 21 -20 21 -19 0 -20 -7 -20 -150z"/>
<path d="M4883 1126 c-36 -33 -38 -37 -41 -108 -2 -59 1 -79 17 -104 25 -41
95 -69 147 -59 37 6 104 61 104 84 0 23 -49 10 -80 -20 -26 -26 -36 -30 -63
-25 -39 7 -77 48 -77 82 0 24 0 24 110 24 l110 0 0 25 c0 39 -25 89 -55 113
-21 16 -41 22 -81 22 -48 0 -59 -4 -91 -34z m150 -25 c8 -9 18 -26 21 -38 7
-23 6 -23 -78 -23 -95 0 -102 6 -66 53 30 38 94 42 123 8z"/>
<path d="M5180 1010 c0 -143 1 -150 20 -150 18 0 20 7 20 78 0 73 11 147 24
159 3 4 23 9 43 12 29 5 38 11 38 26 0 31 -68 34 -89 3 l-16 -22 0 22 c0 15
-6 22 -20 22 -19 0 -20 -7 -20 -150z"/>
</g>
</svg>
