<svg width="515" height="96" viewBox="0 0 515 96" fill="none" xmlns="http://www.w3.org/2000/svg">
<rect x="335" width="180" height="96" rx="48" fill="black"/>
<path d="M483.684 36.2513C483.684 35.4228 483.013 34.7513 482.184 34.7513L468.684 34.7513C467.856 34.7513 467.184 35.4228 467.184 36.2513C467.184 37.0797 467.856 37.7513 468.684 37.7513L480.684 37.7513L480.684 49.7513C480.684 50.5797 481.356 51.2513 482.184 51.2513C483.013 51.2513 483.684 50.5797 483.684 49.7513L483.684 36.2513ZM458.496 62.0607L483.245 37.3119L481.124 35.1906L456.375 59.9393L458.496 62.0607Z" fill="white"/>
<rect x="0.5" y="0.5" width="425" height="95" rx="47.5" fill="white"/>
<rect x="0.5" y="0.5" width="425" height="95" rx="47.5" stroke="black"/>
<path d="M25.89 74V65.18L51.09 34.45H27.01V25H63.76V33.82L38.84 64.48H63.97V74H25.89ZM93.0041 74.56C78.4441 74.56 67.8041 63.92 67.8041 49.5C67.8041 35.08 78.4441 24.44 93.0041 24.44C107.424 24.44 118.064 35.08 118.064 49.5C118.064 63.92 107.424 74.56 93.0041 74.56ZM92.9341 65.04C101.124 65.04 107.004 58.46 107.004 49.5C107.004 40.54 101.124 33.89 92.9341 33.89C84.6741 33.89 78.8641 40.54 78.8641 49.5C78.8641 58.46 84.6741 65.04 92.9341 65.04ZM155.248 25H166.378V74H155.248V53.49H135.788V74H124.728V25H135.788V44.04H155.248V25ZM198.278 74.56C183.718 74.56 173.078 63.92 173.078 49.5C173.078 35.08 183.718 24.44 198.278 24.44C212.698 24.44 223.338 35.08 223.338 49.5C223.338 63.92 212.698 74.56 198.278 74.56ZM198.208 65.04C206.398 65.04 212.278 58.46 212.278 49.5C212.278 40.54 206.398 33.89 198.208 33.89C189.948 33.89 184.138 40.54 184.138 49.5C184.138 58.46 189.948 65.04 198.208 65.04ZM269.29 74.56C255.99 74.56 244.65 66.02 244.65 49.5C244.65 32.98 256.2 24.44 269.29 24.44C281.54 24.44 290.08 31.02 291.48 41.17L280.49 43.48C279.37 37.6 274.89 33.89 269.22 33.89C261.8 33.89 255.78 39.28 255.78 49.5C255.78 59.72 261.73 65.04 269.22 65.04C274.96 65.04 279.09 61.75 280.21 56.5L291.34 59.02C289.03 68.75 280.84 74.56 269.29 74.56ZM339.311 74H326.361L315.721 54.82H309.561V74H298.501L298.361 25H317.891C327.551 25 333.851 30.88 333.851 39.91C333.851 45.23 331.261 49.92 326.781 52.51L339.311 74ZM309.561 34.45V45.37H316.001C320.341 45.37 322.791 43.34 322.791 39.91C322.791 36.48 320.341 34.45 316.001 34.45H309.561ZM344.504 74V25H356.684L370.894 58.32L385.104 25H397.284V74H386.994V45.51L374.954 74H366.904L354.794 45.51V74H344.504Z" fill="black"/>
</svg>
